# xmcd
#
# Track frame offsets:
#	150
#	11021
#	27072
#	45783
#	59221
#	85175
#	100777
#	114972
#	129182
#	149507
#	164095
#	184533
#	204910
#	221725
#
# Disc length: 3143 seconds
#
# Revision: 3
# Processed by: cddbd v1.5.2PL0 Copyright (c) Steve Scherf et al.
# Submitted via: EasyCDDAExtractor 16.0.9.1
#
DISCID=b90c450e
DTITLE=Воскресение - 79
DYEAR=1979
DGENRE=Blues
TTITLE0=Мои песни
TTITLE1=Друзьям
TTITLE2=Случилось
TTITLE3=Так бывает
TTITLE4=Я привык бродить один
TTITLE5=Звезды
TTITLE6=Лето
TTITLE7=Снежная баба
TTITLE8=Я тоже был
TTITLE9=Хороший парень
TTITLE10=Сон
TTITLE11=Городок
TTITLE12=Кто виноват
TTITLE13=Так бывает - вариант 2
EXTD=
EXTT0=
EXTT1=
EXTT2=
EXTT3=
EXTT4=
EXTT5=
EXTT6=
EXTT7=
EXTT8=
EXTT9=
EXTT10=
EXTT11=
EXTT12=
EXTT13=
PLAYORDER=
